<svg width="307" height="307" viewBox="0 0 307 307" fill="none" xmlns="http://www.w3.org/2000/svg">
<path fill-rule="evenodd" clip-rule="evenodd" d="M153.5 307C238.276 307 307 238.276 307 153.5C307 68.7243 238.276 0 153.5 0C68.7243 0 0 68.7243 0 153.5C0 238.276 68.7243 307 153.5 307ZM152.542 242.083C201.994 242.083 242.083 201.994 242.083 152.542C242.083 103.089 201.994 63 152.542 63C103.089 63 63 103.089 63 152.542C63 201.994 103.089 242.083 152.542 242.083Z" fill="white"/>
<path fill-rule="evenodd" clip-rule="evenodd" d="M7.95728 102.153C16.0602 79.3248 29.4509 58.7382 47.0346 42.0765C64.6182 25.4148 85.8956 13.1512 109.127 6.28833L126.974 66.7033C99.2794 74.9402 77.1977 96.2148 67.8457 123.411L7.95728 102.153ZM210.159 221.087L252.08 271.992C262.02 263.807 270.89 254.403 278.482 244.003L225.094 205.031C220.786 210.975 215.766 216.368 210.159 221.087Z" fill="#5C6E96"/>
</svg>
