<svg width="309" height="307" viewBox="0 0 309 307" fill="none" xmlns="http://www.w3.org/2000/svg">
<path fill-rule="evenodd" clip-rule="evenodd" d="M154.5 307C239.276 307 308 238.276 308 153.5C308 68.7243 239.276 0 154.5 0C69.7245 0 1.00024 68.7243 1.00024 153.5C1.00024 238.276 69.7245 307 154.5 307ZM153.542 242.083C202.994 242.083 243.084 201.994 243.084 152.542C243.084 103.089 202.994 63 153.542 63C104.089 63 64.0002 103.089 64.0002 152.542C64.0002 201.994 104.089 242.083 153.542 242.083Z" fill="white"/>
<path fill-rule="evenodd" clip-rule="evenodd" d="M172.565 1.17346C159.787 -0.416175 146.859 -0.391666 134.087 1.24641L142.101 63.7241C145.847 63.2463 149.666 63 153.542 63C157.35 63 161.103 63.2378 164.786 63.6993L172.565 1.17346ZM242.132 165.639C242.759 161.364 243.083 156.991 243.083 152.542C243.083 149.554 242.937 146.601 242.651 143.688L308.036 136.327C309.477 149.122 309.302 162.049 307.515 174.801L242.132 165.639ZM64.482 143.196L1.13021 135.872C-0.348465 148.663 -0.211761 161.59 1.5371 174.347L64.9533 165.654C64.3253 161.374 64.0001 156.996 64.0001 152.542C64.0001 149.386 64.1634 146.267 64.482 143.196ZM147.377 241.874L142.808 306.618C155.652 307.525 168.56 306.812 181.226 304.495L169.552 240.656C164.358 241.594 159.007 242.083 153.542 242.083C151.47 242.083 149.414 242.013 147.377 241.874Z" fill="#5C6E96"/>
</svg>
