<svg width="308" height="307" viewBox="0 0 308 307" fill="none" xmlns="http://www.w3.org/2000/svg">
<path fill-rule="evenodd" clip-rule="evenodd" d="M153.5 307.001C238.276 307.001 307 238.277 307 153.501C307 68.7252 238.276 0.000915527 153.5 0.000915527C68.7243 0.000915527 0 68.7252 0 153.501C0 238.277 68.7243 307.001 153.5 307.001ZM152.542 242.084C201.994 242.084 242.083 201.995 242.083 152.543C242.083 103.09 201.994 63.0009 152.542 63.0009C103.089 63.0009 63 103.09 63 152.543C63 201.995 103.089 242.084 152.542 242.084Z" fill="white"/>
<path fill-rule="evenodd" clip-rule="evenodd" d="M152.127 0.000915527C147.304 0.0162374 142.484 0.258881 137.684 0.72804L143.811 63.4211C146.614 63.1499 149.455 63.0079 152.327 63.0012L152.127 0.000915527ZM223.681 206.927C235.225 191.851 242.083 172.998 242.083 152.543C242.083 138.456 238.831 125.13 233.036 113.273L291.12 83.5214C304.4 109.447 310.029 138.615 307.349 167.62C304.67 196.625 293.793 224.269 275.989 247.323L223.681 206.927ZM74.5568 108.51L19.6234 76.8477C17.2149 81.0266 15.0046 85.3166 13 89.7035L70.7337 116.085C71.8908 113.492 73.1675 110.965 74.5568 108.51ZM76.7175 200.192L21.8745 233.932C24.4018 238.04 27.1214 242.027 30.0241 245.879L81.5165 207.076C79.8132 204.861 78.2112 202.564 76.7175 200.192ZM150.675 242.065L149.253 306.963C154.075 307.069 158.9 306.947 163.71 306.599L159.018 241.854C156.879 242.006 154.719 242.084 152.542 242.084C151.918 242.084 151.296 242.078 150.675 242.065Z" fill="#5C6E96"/>
</svg>
