<svg width="309" height="307" viewBox="0 0 309 307" fill="none" xmlns="http://www.w3.org/2000/svg">
<path fill-rule="evenodd" clip-rule="evenodd" d="M154.5 307.001C239.276 307.001 308 238.277 308 153.501C308 68.7252 239.276 0.000915527 154.5 0.000915527C69.7243 0.000915527 1 68.7252 1 153.501C1 238.277 69.7243 307.001 154.5 307.001ZM153.542 242.084C202.994 242.084 243.083 201.995 243.083 152.543C243.083 103.09 202.994 63.0009 153.542 63.0009C104.089 63.0009 64 103.09 64 152.543C64 201.995 104.089 242.084 153.542 242.084Z" fill="white"/>
<path fill-rule="evenodd" clip-rule="evenodd" d="M287.783 75.0129C270.542 44.8119 243.745 21.204 211.612 7.90747L186.263 69.1678C219.531 82.2344 243.084 114.638 243.084 152.543C243.084 156.956 242.764 161.296 242.147 165.539L306.84 174.722C311.728 140.292 305.024 105.214 287.783 75.0129ZM126.845 238.037C122.205 236.589 117.727 234.775 113.445 232.627L83.8732 289.966C91.169 293.729 98.7491 296.912 106.544 299.487L126.845 238.037ZM64.1575 147.193C64.449 142.246 65.1421 137.407 66.2048 132.708L5.07716 116.471C2.96983 124.405 1.4892 132.492 0.648926 140.658L64.1575 147.193Z" fill="#5C6E96"/>
</svg>
