<svg width="307" height="307" viewBox="0 0 307 307" fill="none" xmlns="http://www.w3.org/2000/svg">
<path fill-rule="evenodd" clip-rule="evenodd" d="M153.5 307C238.276 307 307 238.276 307 153.5C307 68.7243 238.276 0 153.5 0C68.7243 0 0 68.7243 0 153.5C0 238.276 68.7243 307 153.5 307ZM152.542 242.083C201.994 242.083 242.083 201.994 242.083 152.542C242.083 103.089 201.994 63 152.542 63C103.089 63 63 103.089 63 152.542C63 201.994 103.089 242.083 152.542 242.083Z" fill="white"/>
<path fill-rule="evenodd" clip-rule="evenodd" d="M137.684 0.727125C142.484 0.257966 147.304 0.0153218 152.127 0L152.327 63.0003C149.455 63.007 146.614 63.149 143.811 63.4202L137.684 0.727125ZM74.5568 108.509L19.6234 76.8468C17.2149 81.0257 15.0046 85.3157 13 89.7026L70.7338 116.084C71.8908 113.491 73.1675 110.964 74.5568 108.509ZM81.5165 207.076C79.8132 204.86 78.2112 202.563 76.7175 200.191L21.8745 233.931C24.4018 238.039 27.1214 242.026 30.0241 245.878L81.5165 207.076ZM235.025 117.637C233.929 115.05 232.715 112.525 231.389 110.069L287.566 78.7435C289.915 82.9561 292.064 87.2771 294.006 91.692L235.025 117.637ZM227.946 200.852C229.426 198.547 230.803 196.17 232.07 193.727L290.766 224.166C288.546 228.448 286.125 232.623 283.511 236.677L227.946 200.852ZM173.606 239.592C170.919 240.24 168.184 240.766 165.408 241.166L174.78 305.39C179.553 304.694 184.29 303.773 188.976 302.63L173.606 239.592Z" fill="#5C6E96"/>
</svg>
