<svg width="307" height="307" viewBox="0 0 307 307" fill="none" xmlns="http://www.w3.org/2000/svg">
<circle cx="153.5" cy="153.5" r="153.5" fill="white"/>
<path d="M280.173 240.196C276.969 244.877 273.509 249.376 269.808 253.674L153.5 153.5L280.173 240.196Z" fill="#3F6AD8"/>
<path d="M10.5113 97.6745C17.8424 78.897 28.8003 61.7473 42.7592 47.2046C56.7181 32.6619 73.4047 21.011 91.8663 12.9171L153.5 153.5L10.5113 97.6745Z" fill="#3F6AD8"/>
<path d="M242.083 152.542C242.083 201.994 201.994 242.083 152.542 242.083C103.089 242.083 63.0002 201.994 63.0002 152.542C63.0002 103.089 103.089 63 152.542 63C201.994 63 242.083 103.089 242.083 152.542Z" fill="#26252A"/>
</svg>
