<svg width="307" height="307" viewBox="0 0 307 307" fill="none" xmlns="http://www.w3.org/2000/svg">
<path fill-rule="evenodd" clip-rule="evenodd" d="M153.5 307C238.276 307 307 238.276 307 153.5C307 68.7243 238.276 0 153.5 0C68.7243 0 0 68.7243 0 153.5C0 238.276 68.7243 307 153.5 307ZM152.542 242.083C201.994 242.083 242.083 201.994 242.083 152.542C242.083 103.089 201.994 63 152.542 63C103.089 63 63 103.089 63 152.542C63 201.994 103.089 242.083 152.542 242.083Z" fill="#AFAFAF"/>
<path fill-rule="evenodd" clip-rule="evenodd" d="M7.95703 102.153C21.5748 63.7878 49.8755 32.4032 86.6333 14.9038L113.732 71.8249C92.3265 82.1358 75.6515 100.711 67.8455 123.411L7.95703 102.153ZM199.899 228.55L233.949 284.84C251.197 274.406 266.221 260.678 278.163 244.438C290.105 228.198 298.732 209.765 303.55 190.192L239.397 174.399C233.689 197.153 219.274 216.452 199.899 228.55Z" fill="#278EFF"/>
</svg>
