<svg width="309" height="307" viewBox="0 0 309 307" fill="none" xmlns="http://www.w3.org/2000/svg">
<path fill-rule="evenodd" clip-rule="evenodd" d="M154.5 307.001C239.276 307.001 308 238.277 308 153.501C308 68.7252 239.276 0.000915527 154.5 0.000915527C69.7243 0.000915527 1 68.7252 1 153.501C1 238.277 69.7243 307.001 154.5 307.001ZM153.542 242.084C202.994 242.084 243.083 201.995 243.083 152.543C243.083 103.09 202.994 63.0009 153.542 63.0009C104.089 63.0009 64 103.09 64 152.543C64 201.995 104.089 242.084 153.542 242.084Z" fill="#AFAFAF"/>
<path fill-rule="evenodd" clip-rule="evenodd" d="M223.993 17.0849C195.771 2.52448 163.727 -2.92402 132.278 1.49034L141.033 63.8676C145.121 63.2963 149.297 63.0009 153.542 63.0009C168.522 63.0009 182.644 66.6797 195.051 73.1831L223.993 17.0849ZM241.892 167.184C242.626 162.725 243.03 158.156 243.078 153.501H309C309 161.542 308.368 169.571 307.11 177.514L241.892 167.184ZM64.0764 148.811L0.32477 145.473C-0.0957407 153.503 0.115426 161.555 0.956321 169.552L64.5882 162.861C64.1998 159.475 64.0001 156.032 64.0001 152.543C64.0001 151.293 64.0257 150.049 64.0764 148.811ZM139.752 241.029L129.602 305.11C137.544 306.368 145.573 307 153.615 307V242.084C153.59 242.084 153.566 242.084 153.542 242.084C148.852 242.084 144.247 241.724 139.752 241.029Z" fill="#278EFF"/>
</svg>
