<svg width="307" height="307" viewBox="0 0 307 307" fill="none" xmlns="http://www.w3.org/2000/svg">
<path fill-rule="evenodd" clip-rule="evenodd" d="M153.5 307.001C238.276 307.001 307 238.277 307 153.501C307 68.7251 238.276 0.000854492 153.5 0.000854492C68.7243 0.000854492 0 68.7251 0 153.501C0 238.277 68.7243 307.001 153.5 307.001ZM152.542 242.084C201.994 242.084 242.083 201.995 242.083 152.543C242.083 103.09 201.994 63.0009 152.542 63.0009C103.089 63.0009 63 103.09 63 152.543C63 201.995 103.089 242.084 152.542 242.084Z" fill="#AFAFAF"/>
<path fill-rule="evenodd" clip-rule="evenodd" d="M144.965 0.190841C149.782 -0.0495188 154.608 -0.0626952 159.427 0.151355L156.631 63.0926C155.275 63.0317 153.912 63.0009 152.542 63.0009C151.054 63.0009 149.575 63.0372 148.104 63.1089L144.965 0.190841ZM74.5568 108.51L19.6234 76.8477C17.2149 81.0266 15.0046 85.3166 13 89.7035L70.7337 116.085C71.8908 113.492 73.1675 110.965 74.5568 108.51ZM76.7175 200.192L21.8745 233.932C24.4018 238.04 27.1214 242.027 30.0241 245.879L81.5165 207.076C79.8132 204.861 78.2112 202.564 76.7175 200.192ZM152.211 242.084L150.535 306.95C155.356 307.074 160.181 306.972 164.993 306.642L160.545 241.731C157.909 241.965 155.239 242.084 152.542 242.084C152.431 242.084 152.321 242.084 152.211 242.084ZM239.977 171.939L303.626 185.51C307.592 166.905 308.066 147.726 305.024 128.948L241.112 139.305C241.752 143.624 242.083 148.045 242.083 152.543C242.083 159.203 241.356 165.693 239.977 171.939Z" fill="#278EFF"/>
</svg>
