<svg width="307" height="307" viewBox="0 0 307 307" fill="none" xmlns="http://www.w3.org/2000/svg">
<path fill-rule="evenodd" clip-rule="evenodd" d="M153.5 307C238.276 307 307 238.276 307 153.5C307 68.7243 238.276 0 153.5 0C68.7243 0 0 68.7243 0 153.5C0 238.276 68.7243 307 153.5 307ZM152.542 242.083C201.994 242.083 242.083 201.994 242.083 152.542C242.083 103.089 201.994 63 152.542 63C103.089 63 63 103.089 63 152.542C63 201.994 103.089 242.083 152.542 242.083Z" fill="#AFAFAF"/>
<path fill-rule="evenodd" clip-rule="evenodd" d="M196.525 6.41363C157.515 -5.23204 115.477 -0.904288 79.6586 18.4448L109.632 73.9316C122.374 66.962 136.995 62.9999 152.542 62.9999C161.566 62.9999 170.278 64.3349 178.492 66.818L196.525 6.41363ZM199.898 228.549C219.273 216.452 233.688 197.153 239.396 174.399L303.55 190.192C298.732 209.765 290.105 228.198 278.163 244.438C266.221 260.677 251.197 274.406 233.949 284.839L199.898 228.549ZM66.1867 176.302C72.3798 198.862 87.1763 217.86 106.828 229.551L74.06 286.613C56.5793 276.575 41.2469 263.192 28.9383 247.229C16.6297 231.265 7.58588 213.033 2.32324 193.574L66.1867 176.302Z" fill="#278EFF"/>
</svg>
